<svg id="Logo" xmlns="http://www.w3.org/2000/svg" width="450.016" height="137" viewBox="0 0 450.016 137">
  <g id="Group_1256" data-name="Group 1256" transform="translate(0 1.786)">
    <path id="Path_1920" data-name="Path 1920" d="M2105.072,1390.645c-1.242-5.67-.99-9.964,4.513-13.789,20.551-14.281,40.729-29.1,61.052-43.709a11.759,11.759,0,0,1,1.382-.67c6.417,4.609,13.026,9.347,19.627,14.094,14.7,10.572,29.45,21.075,44.022,31.82,1.7,1.251,3.4,3.843,3.413,5.827.219,26.815.143,53.632.126,80.448,0,.691-.154,1.38-.289,2.525h-57.092c.342-21.394-6.271-40.131-21.609-55.33C2145.012,1396.794,2126.446,1390.2,2105.072,1390.645Zm124.753,67.756c0-23.869.068-47.122-.143-70.372-.014-1.652-1.736-3.746-3.239-4.854-12.574-9.266-25.277-18.36-37.957-27.482-5.569-4.006-11.176-7.959-16.765-11.937l-52.373,37.763c42.384,9,66.265,34.41,72.016,76.882Z" transform="translate(-2104.459 -1332.477)" fill="#e32823"/>
    <path id="Path_1921" data-name="Path 1921" d="M2104.816,1409.536v-8.575c31.676-4.771,66.126,25.15,62.371,61.813h-8.734c.572-14.966-3.825-28.245-14.645-38.951C2133.121,1413.247,2120.032,1408.83,2104.816,1409.536Z" transform="translate(-2104.435 -1328.002)" fill="#e32823"/>
    <path id="Path_1922" data-name="Path 1922" d="M2104.76,1431.622v-8.87c21.564-4.261,42.225,16.068,39.143,38.585h-8.979c.873-8.32-1.184-16.023-7.24-22.195C2121.576,1432.919,2114.015,1430.53,2104.76,1431.622Z" transform="translate(-2104.438 -1326.572)" fill="#e32823"/>
  </g>
  <text id="Intelligent_Solutions" data-name="Intelligent
Solutions" transform="translate(158.016 64)" fill="#747170" font-size="65" font-family="Lato-Bold, Lato" font-weight="700"><tspan x="0" y="0">Intelligent</tspan><tspan font-family="Lato-Light, Lato" font-weight="300"><tspan x="0" y="59">Solutions</tspan></tspan></text>
</svg>
