<?xml version="1.0" encoding="utf-8"?>
<!-- Generator: Adobe Illustrator 23.0.1, SVG Export Plug-In . SVG Version: 6.00 Build 0)  -->
<svg version="1.1" id="Robi_Logo" xmlns="http://www.w3.org/2000/svg" xmlns:xlink="http://www.w3.org/1999/xlink" x="0px" y="0px"
	 viewBox="0 0 90.9 79.5" style="enable-background:new 0 0 90.9 79.5;" xml:space="preserve">
<style type="text/css">
	.st0{fill:#FE0000;}
	.st1{fill:#FE17CF;}
	.st2{fill:#FEAC14;}
	.st3{fill:#FE0101;}
	.st4{fill:#B20754;}
	.st5{fill:#FE7207;}
	.st6{fill:#FE2807;}
	.st7{fill:#FE7507;}
	.st8{fill:#FE7A07;}
	.st9{fill:#760BC2;}
	.st10{fill:#C1055D;}
	.st11{fill:#FE3F06;}
	.st12{fill:#FE3206;}
	.st13{fill:#C70561;}
	.st14{fill:#D9036D;}
	.st15{fill:#D20468;}
	.st16{fill:#BC065A;}
	.st17{fill:#CD0465;}
	.st18{fill:#E10272;}
	.st19{fill:#7F0CC5;}
	.st20{fill:#E70377;}
	.st21{fill:#ED027A;}
	.st22{fill:#F4047F;}
	.st23{fill:#8117C6;}
	.st24{fill:#FC8425;}
	.st25{fill:#B70657;}
	.st26{fill:#FE2C06;}
	.st27{fill:#3600AF;}
	.st28{fill:#FE6D07;}
	.st29{fill:#FE6907;}
	.st30{fill:#FE7224;}
	.st31{fill:#6F0AC0;}
	.st32{fill:#FE4505;}
	.st33{fill:#4202B3;}
	.st34{fill:#FE3906;}
	.st35{fill:#5E06BB;}
	.st36{fill:#5805B9;}
	.st37{fill:#5104B7;}
	.st38{fill:#4A03B5;}
	.st39{fill:#6408BE;}
	.st40{fill:#6A09BF;}
	.st41{fill:#FE5905;}
	.st42{fill:#FE6404;}
	.st43{fill:#FD6C04;}
	.st44{fill:#FB7205;}
	.st45{fill:#FE5E04;}
	.st46{fill:#3C00B1;}
	.st47{fill:#FE4C05;}
	.st48{fill:#FE5305;}
</style>
<g>
	<path id="Path_1301" class="st0" d="M21.6,77.4c-2.1-2.4-4.2-4.8-6.6-7.5c2.1-0.6,3.6-1.2,4.8-2.7c2.1-2.7,2.1-5.7,0.9-9
		c-1.5-3.3-4.2-4.8-7.5-4.8c-4.2-0.3-8.1,0-12.3,0c-0.6,0-0.9,0.3-0.9,0.9c0,7.8,0,16,0,23.8c0,0.6,0,0.9,0.9,0.9c1.2,0,2.1,0,3.3,0
		C4.7,78.9,5,78.6,5,78c0-1.5,0-2.7,0-4.2c0-1.2-0.3-2.7,0.3-3.3c0.6-0.9,2.1,0,3.3-0.3c0.6,0,1.5,0.3,1.8,0.9c1.2,1.5,3,3,3.9,4.8
		c1.8,2.4,3.9,3.6,6.9,3c0.6,0,1.2,0.3,1.5-0.3S22.2,77.7,21.6,77.4z M12.8,66c-1.2,0-2.7,0-3.9,0l0,0c-1.2,0-2.1,0-3.3,0
		c-0.6,0-0.9,0-0.9-0.9c0-2.1,0-4.5,0-6.6c0-0.6,0-0.6,0.6-0.6c2.4,0,4.8,0,7.2,0c2.1,0,3.9,1.8,3.9,3.9l0,0
		C16.4,64.2,15.2,65.7,12.8,66L12.8,66z"/>
	<path id="Path_1302" class="st0" d="M64,65.4c-1.2-2.7-3.3-4.2-6-4.8c-3-0.6-5.7,0-8.1,2.4c0-2.1,0-4.2,0-6c0-1.2,0.6-2.7-0.3-3.3
		c-0.6-0.6-2.1,0-3.3-0.3c-0.9,0-1.2,0.3-1.2,1.2c0,7.5,0,14.8,0,22.3c0,2.4,0,2.4,2.4,2.4c1.8,0,1.8,0,2.1-1.8c0,0,0,0,0-0.3
		c3.9,4.5,11.7,2.4,13.9-1.8C65.2,72,65.5,68.4,64,65.4z M55.6,75.3c-3,0-5.1-2.1-5.4-5.1s2.1-5.4,4.8-5.4l0,0c3,0,5.1,2.1,5.4,5.1
		C60.7,72.6,58.3,75.3,55.6,75.3L55.6,75.3z"/>
	<path id="Path_1303" class="st1" d="M70.4,58.7c-3.3-1.8-6.9-3.9-10.2-5.7c-3.3-1.8-6.6-3.9-10.2-5.7c0.3-0.6,0.6-0.6,0.9-0.9
		c6-3.6,12.3-7.2,18.4-10.8c0.3,0,0.6-0.3,0.6-0.6c0,0,0.3,0,0.6,0l0,0v0.3c0,0.6,0,1.2,0,1.8c0,6.3,0,13,0,19.3
		C71,57.5,71,58.4,70.4,58.7z"/>
	<path id="Path_1304" class="st2" d="M49.9,23.5c-0.3-0.3-0.3-0.6-0.3-0.9c0-7.5,0-15.1,0-22.3c0,0,0,0,0.3-0.3l20.2,11.7V12
		c-1.2,1.2-2.7,1.8-3.9,2.4c-0.9,0.6-1.8,0.9-2.4,1.5c-2.4,1.2-4.5,2.7-6.9,3.9c-1.8,0.9-3.3,2.1-5.1,3
		C51.1,23.2,50.5,23.5,49.9,23.5z"/>
	<path id="Path_1305" class="st0" d="M32.7,60.5c-5.4,0-9,3.9-9,9.3c0,5.7,3.6,9.6,9.3,9.6c5.7,0,9.6-3.9,9.6-9.6
		C42.3,64.2,38.4,60.5,32.7,60.5z M33,75.3c-3,0-4.8-2.1-4.8-5.4c0-3,2.1-5.4,4.8-5.4c2.7,0,4.8,2.4,4.8,5.4
		C37.8,73.2,35.7,75.3,33,75.3L33,75.3z"/>
	<path id="Path_1306" class="st3" d="M68.2,69.6c0-2.7,0-5.4,0-8.1c0-0.6,0-1.2,0.9-0.9c1.2,0,2.7-0.6,3.3,0.3
		c0.6,0.6,0.3,2.1,0.3,3.3c0,4.5,0,9,0,13.9c0,0.9-0.3,1.2-0.9,0.9c-1.2,0-2.7,0.6-3.3-0.3c-0.6-0.6-0.3-2.1-0.3-3.3
		C68.2,73.5,68.2,71.7,68.2,69.6z"/>
	<path id="Path_1307" class="st4" d="M70.4,58.7c0-7.8,0-15.4,0-23.2v-0.3c1.5,0.3,2.7,0.9,3.6,2.1c0.3,0.9,0.6,2.1,0,3
		c0,0.3,0,0.3,0,0.6c0,4.2-0.3,8.4-0.3,13c0,0.6,0,1.2,0.3,1.8c0,0.3-0.3,0.6-0.3,0.6c-0.3,0-0.6,0.3-0.6,0.9l0,0
		C72.5,57.8,71.6,58.4,70.4,58.7z"/>
	<path id="Path_1308" class="st5" d="M49.9,23.5l6.6-3.9c0.3,0,0.6,0,0.6,0c0.6-0.3,1.2-0.9,1.5,0.3c0.3,0.6,0.9,0.3,1.5,0.3
		c2.7,0,5.7,0,8.4,0c0.6,0,1.2,0,1.8,0.3c0.3,0.6,0.3,0.9,0.3,1.5c0,0.6,0,1.2-0.3,1.8c-0.6,0.3-1.2,0.3-1.8,0.3c-3.3,0-6.6,0-9.9,0
		c-0.9,0-1.5,0.3-2.4,0.3c-1.2,0-2.7,1.2-3.9,0.3C51.7,24.7,50.8,24.1,49.9,23.5z"/>
	<path id="Path_1309" class="st6" d="M71,12c4.2,2.4,8.4,4.5,12.3,6.9c0.3,0.3,0.6,0.3,0.9,0.6l0,0l0,0c0,0.3,0.3,0.6,0,0.9
		c-0.3,0.3-0.6,0.3-0.9,0c-0.9-0.6-1.8-0.3-2.7-0.3c-2.1,0-4.5,0-6.6,0c-0.9,0-1.8,0-2.7,0c-0.6,0-1.2,0-1.5-0.6
		c-0.3-2.4-0.3-4.5,0-6.9C70.4,12.3,70.4,11.7,71,12z"/>
	<path id="Path_1310" class="st7" d="M52.6,25c0.3,0,0.6,0,0.9,0c0.3,0,0.3,0,0.6,0c0.3-1.8,1.8,0,2.7-0.6c0.9-0.9,2.4-0.3,3.6-0.3
		c3.3,0,6.9,0,10.2,0c0.6,1.2,0.3,2.1,0.3,3.3c0,0,0,0.3-0.3,0.3C70.1,28,69.5,28,68.8,28c-3.3,0-6.9,0-10.2,0
		C56.2,27.1,54.4,26.2,52.6,25z"/>
	<path id="Path_1311" class="st8" d="M58,28c0.6-0.3,1.2-0.6,1.8-0.6c3.6,0,6.9,0,10.5,0c0.3,0.3,0.3,0.6,0.3,1.2c0,1.8,0,3.3,0,5.1
		c0,0.3,0,0.9-0.6,1.2c-3.3-1.8-6.9-3.9-10.2-5.7c0-0.3,0.3-0.3,0.3-0.3l0.3-0.3l0,0l-0.3,0.3c-0.3,0.3-0.6-0.3-0.9-0.3
		C58.6,28.6,58.3,28.3,58,28z"/>
	<path id="Path_1312" class="st9" d="M90.8,23.5L90.8,23.5c0.3,2.1,0,3.9,0,5.4c-0.3,2.4-0.3,4.8-0.3,6.9v0.3c0,2.1,0,4.2,0,6.3
		c0,1.2,0,2.4-1.2,3c-0.6,0-1.2-0.3-1.5-0.6v-0.3c0-1.5-0.3-3.3,0.3-4.8c0.9-3.6,0.3-7.5,0.9-11.1c0.3-1.5,0.6-2.7,0-4.2
		c-0.3-0.6,0.3-0.9,0.6-0.9C89.6,23.5,90.2,23.2,90.8,23.5z"/>
	<path id="Path_1313" class="st10" d="M77,54.8c-0.6,0.3-0.9,0.9-1.8,0.9c-0.3-1.8-0.3-3.6-0.3-5.4c0-2.7,0-5.7,0-8.4
		c0-0.9,0-1.5,0.3-2.4v-0.3c0-0.6,0.6-0.6,0.9-0.6c0.3,0,0.9,0,1.2,0.3c0.3,0.3,0.6,0.3,0.3,0.9c-0.3,0.6-0.3,1.2-0.3,1.8
		c0,2.7,0,5.1,0,7.8c0,1.5,0,3-0.6,4.5C76.7,54.5,77.6,54.5,77,54.8z"/>
	<path id="Path_1314" class="st11" d="M90.8,23.5c-0.6,0-0.9,0.6-1.5,0.6c-0.9,0.3-2.1,0-3,0c-4.2,0-8.4,0.3-12.3,0.3
		c-0.6,0-1.2,0-1.8,0c-0.6,0-0.9-0.3-0.6-0.9c0.3-0.6,0.9-0.6,1.5-0.6c1.2,0,2.4,0,3.6,0c3,0.3,6-0.6,9-0.6c0.6,0,0.9-0.3,1.5-0.3
		c0.3-0.3,0.6,0,0.9,0C88.7,22,89.9,22.3,90.8,23.5z"/>
	<path id="Path_1315" class="st12" d="M87.8,21.7C87.5,22,87.2,22,87.2,22c-4.5,0.6-9,0.3-13.6,0c-0.6,0-1.2-0.3-1.5,0.6
		c0,0.3-0.6,0-0.9,0c-0.3,0.3-0.6,0-0.9-0.3c0,0-0.3,0-0.3-0.3c0-0.6,0-0.9,0-1.5c-0.6-1.5-0.3-3-0.3-4.5s-0.3-3,0.3-4.5
		c0,0,0,0,0-0.3l0.9,0.3c-0.9,0.3-0.6,0.9-0.6,1.5c0,2.1,0,4.2,0,6.3c0.3,0.3,0,0.6,0.9,0.6c3.6,0,7.5-0.3,11.1-0.3
		c0.6,0,0.9,0,1.5,0.3c0.6,0.3,0.3-0.6,0.6-0.6C85.7,20.2,86.6,20.8,87.8,21.7z"/>
	<path id="Path_1316" class="st13" d="M77,54.8c-0.6-0.6-0.3-1.5-0.3-2.1c0.6-3.9,0-8.1,0.3-12c0-0.6,0-1.2,0.6-1.2
		c0.6,0,1.2,0,1.2,0.9c-0.3,1.8-0.3,3.3-0.3,5.1c0.3,2.7-0.6,5.4-0.3,7.8c0,0.6-0.3,0.9-0.6,1.2C77.9,54.8,77.6,55.1,77,54.8z"/>
	<path id="Path_1317" class="st14" d="M82.4,51.8c-0.3,0.3-0.9,0.6-1.2,0.6c-0.6-0.3-0.9-1.2-0.9-1.8c0-3,0.3-5.7,0.3-8.7
		c0-0.3,0-0.6,0.3-0.6s0.3-0.3,0.6-0.3c0.3,0,0.6,0.3,0.9,0.3c0,0,0.3,0,0.3,0.3c0.3,0.3,0.6,0.3,0.9,0.6v0.3
		c-0.3,1.2-0.3,2.1-0.3,2.7c0,1.8-0.3,3.6-0.3,5.4C83,51.2,82.4,51.5,82.4,51.8z"/>
	<path id="Path_1318" class="st15" d="M81.2,41.6c0,0.3-0.3,0.3-0.3,0.6c0.3,2.7,0,5.4-0.3,8.1c0,0.9,0.3,1.8,0.6,2.7
		c-0.6,0.3-1.2,0.9-1.8,0.9c-0.6-0.6-0.6-1.5-0.6-2.1c0.3-1.8,0.3-3.9,0-5.7c0-1.5,0.6-3,0.6-4.5c0-0.3,0.3-0.3,0.3-0.3
		c0.3,0,0.3,0,0.6,0C80.9,41,81.2,41.3,81.2,41.6z"/>
	<path id="Path_1319" class="st16" d="M75.8,39.5c0.3,0,0.6,0.3,0.3,0.3c-0.9,0.6-0.6,1.5-0.6,2.4c0,2.7,0.3,5.4,0,8.4
		c-0.3,1.8,0.3,3.6-0.3,5.4c-0.3,0-0.3,0.6-0.6,0.6c-0.9,0-0.9,0-0.9-0.3S74,56,74.3,56c0.3-4.5,0-9,0-13.9c0-0.3,0-0.9,0-1.2
		C74.3,40.1,74.9,39.5,75.8,39.5z"/>
	<path id="Path_1320" class="st17" d="M80.3,41c-0.6,0.6-0.3,1.5-0.6,2.1c-0.6,2.1-0.3,4.5-0.3,6.6c0,1.2-0.6,2.4,0,3.9l-1.5,0.9
		c0.3-0.9,0-1.8,0.3-2.7c0.6-3.3,0-6.9,0.6-10.2c0-0.3,0-0.3-0.3-0.3c-0.9-0.9,0-0.9,0.3-0.9s0.3,0,0.6,0C80,40.4,80.3,40.7,80.3,41
		z"/>
	<path id="Path_1321" class="st18" d="M82.4,51.8l-0.3-0.3c1.2-1.8,0.3-3.9,0.6-6c0-0.6,0-1.2,0-1.8c0-0.3,0-0.9,0.3-1.2h0.3
		c0.3,0,0.6,0.3,0.6,0.6c0.3,0.3,0.3,0.6,0.3,0.9c0,1.5,0,3,0,4.8c0,0.6-0.6,1.2-0.3,1.8L82.4,51.8z"/>
	<path id="Path_1322" class="st19" d="M88.7,45.8c1.2-0.6,1.2-1.8,1.2-2.7c0-1.8,0-3.9,0-5.7c0-0.3,0-0.9,0.3-0.9c0,0.9,0,2.1,0,2.7
		c0-0.6,0-1.8,0-2.7c-0.3-0.9-0.6-1.8,0-2.4c0.3-0.3,0.3-0.6,0-0.9c-0.6-1.2-0.3-2.4,0.3-3.6c0.3,0.3,0.3,0.9,0.3,1.2
		c0,3.9,0,7.5,0,11.4c0,1.5,0,3.3,0,4.8C89.9,47,89.3,46.7,88.7,45.8z"/>
	<path id="Path_1323" class="st20" d="M84.5,50.9c0-0.3-0.9-0.6,0-1.2v-0.6c0-1.5,0-3,0-4.8c0-0.6-0.6-0.6-0.3-0.9
		c0.6-0.3,0.9,0,1.2,0.3c0.3,0.3,0.9,0.3,0.9,0.9c-0.9,0.9-0.9,2.1-0.3,3.3c0.3,0.9,0.6,1.5,0,2.1C85.4,50.3,85.1,50.6,84.5,50.9z"
		/>
	<path id="Path_1324" class="st21" d="M86,50c0-0.6,0.3-1.5-0.3-2.1c-0.6-0.9,0-3,0.9-3.3c0,0,0.3-0.3,0.6,0c0.3,0,0.6,0.3,0.6,0.6
		c0,0,0,0,0,0.3c0,1.2,0.6,2.4-0.6,3c0,0,0.3,0,0.3,0.3c0,0,0.3,0.3,0.3,0.6C86.9,49.4,86.3,49.7,86,50z"/>
	<path id="Path_1325" class="st22" d="M87.2,49.1c-0.3-0.3-0.6-0.6,0-1.2c0.6-0.6,0-1.8,0.3-2.4l1.2,0.6l2.1,1.2
		C89.6,47.9,88.7,48.5,87.2,49.1z"/>
	<path id="Path_1326" class="st23" d="M90.8,42.2c-0.3-0.3-0.3-0.9-0.3-1.2c0-3.9,0-7.5,0-11.4c0-1.8,0-3.9,0-5.7
		c0.3,2.1,0,4.2,0.3,6.3C91.1,34,90.8,38,90.8,42.2z"/>
	<path id="Path_1327" class="st24" d="M70.1,34.9c0.3-0.3,0.3-0.9,0.3-1.5c0-2.1,0-3.9,0-6v-0.3h0.3C71,27.4,71,27.7,71,28
		c0,0.6,0,0.9,0,1.5c0,0.3,0,0.6,0,0.9c0,0.6,0,1.2,0,1.8c0,0.9,0,1.8,0,2.7l-0.3,0.3L70.1,34.9L70.1,34.9z"/>
	<path id="Path_1328" class="st25" d="M73.7,56.3c0.3,0.6,0.9-0.3,0.9,0.3c-0.3,0.3-0.9,0.6-1.2,0.6c0-0.3-0.6-0.3-0.6-0.6
		C73.1,56.3,73.4,56.3,73.7,56.3z"/>
	<path id="Path_1329" class="st7" d="M60.1,28.9L60.1,28.9c-0.6,0.3-0.9,0-0.9-0.3C59.5,28.3,59.8,28.9,60.1,28.9z"/>
	<path id="Path_1330" class="st26" d="M84.2,19.6c-0.6,0.3-0.6,0-0.9-0.6C83.9,19,84.2,19.3,84.2,19.6z"/>
	<path id="Path_1331" class="st27" d="M70.4,35.2L70.4,35.2c0.9-1.2,2.1-1.5,3-2.4c1.2-0.6,2.4-1.5,3.6-1.8c0.3,0.3,0.6,0.6,0.6,1.2
		c0,2.1-0.3,3.9-0.3,6c0,0.3,0,0.3-0.3,0.6c-0.3,0.3-0.6,0.3-0.6,0.3c-0.6,0-1.2-0.3-1.8-0.6c-0.3-0.3-0.6-0.6-0.9-0.9
		C72.8,36.7,71.9,35.8,70.4,35.2L70.4,35.2z"/>
	<path id="Path_1332" class="st28" d="M70.4,16.3c0,1.5,0,3,0,4.5c-3.3,0-6.9,0-10.2,0c-0.6,0-0.9,0-1.5-0.3c-0.6-0.3-0.6-0.6,0-0.9
		c-0.6-0.3-0.9,0.3-1.2,0.3c-0.3,0-0.6,0.3-0.6-0.3c2.1-1.2,4.2-2.4,6.3-3.6c0.3,0,0.3-0.3,0.6-0.3c0.3,0,0.9,0.3,1.2,0.3h0.3
		C66.7,15.7,68.5,15.7,70.4,16.3z"/>
	<path id="Path_1333" class="st29" d="M64.9,16.3c-0.6,0-0.9,0-1.2-0.6l6.6-3.9c0,1.5,0,3,0,4.5c-1.2,0-2.4,0.3-3.6-0.3
		c-0.6,0-0.6,0.3-0.9,0.6C65.2,16.6,64.9,16.9,64.9,16.3L64.9,16.3L64.9,16.3L64.9,16.3z"/>
	<path id="Path_1334" class="st25" d="M74,37.3c0.3,0,0.6,0.3,0.9,0.6c0.6,0.3,0.3,1.2,0.6,1.5h0.3c-1.2,0.3-1.2,0.9-1.2,2.1
		c0,4.5,0,8.7,0,13.3c0,0.6,0,1.2-0.6,1.5c-0.6-0.3-0.6-0.9-0.6-1.5c-0.3-4.5,0.3-9,0.3-13.6C74,39.8,74.3,38.6,74,37.3z"/>
	<path id="Path_1335" class="st30" d="M70.4,27.4L70.4,27.4c-0.3-1.2-0.3-2.4-0.3-3.3c0-0.6,0-1.2,0-2.1h0.3
		c0.3,0.6,0.3,1.2,0.3,1.8c0,0.3,0,0.6,0,0.9c0,0.6,0,1.2,0,1.5C71,26.5,70.7,27.1,70.4,27.4C70.7,27.4,70.7,27.4,70.4,27.4z"/>
	<path id="Path_1336" class="st26" d="M83.9,20.2c-2.4,0.3-4.8,0.3-6.9,0.3c-1.2,0-2.1-0.3-3.3,0.3c-0.6,0.3-1.2,0.3-1.8-0.3
		c-0.6-0.3-0.9,0-1.2,0.3v-1.2c0.9,0.3,1.5,0,2.4,0c2.7,0,5.4,0,7.8,0c0.6,0,0.9,0,1.5-0.3C83,19.3,83.3,19.9,83.9,20.2z"/>
	<path id="Path_1337" class="st7" d="M61,28.9l-1.2-0.3c0,0,0-0.3,0.3-0.3C60.7,28.3,61,28.6,61,28.9z"/>
	<path id="Path_1338" class="st31" d="M87.5,44.9c-0.3,0-0.6-0.3-0.6-0.3c-0.6-1.2-0.3-2.4-0.3-3.6c0.3-2.4,0.3-4.8,0.9-7.2
		c0.3-1.8,0-3.6,0.3-5.4c0-0.9,0-2.1,0.3-3V25c0-0.3,0.3-0.3,0.6,0c0.3,0.3,0.6,0.3,0.9,0.3c-0.3,0-1.2,0.3-0.3,0.9
		c0.3,0,0,0.9,0,1.2c-1.2,3-0.6,6.3-0.6,9.3c0,0.6,0,1.2-0.6,1.8c-0.6,0.6-0.3,1.2-0.3,2.1C87.8,42.2,87.8,43.7,87.5,44.9z"/>
	<path id="Path_1339" class="st32" d="M88.4,24.7h-0.3c-0.9,0.9-2.4,0.6-3.3,0.6c-3.9-0.3-8.1,0.3-12,0.3c-0.9,0-1.5-0.3-1.5-1.2
		c0-0.3,0-0.9,0-1.2c0,0,0.3-0.3,0.3,0c0,0.6,0.6,0.6,0.9,0.6c3.3,0,6.6,0.3,9.9,0c1.8-0.3,3.6,0,5.7,0c0.6,0,0.9-0.3,1.5,0.3
		L88.4,24.7z"/>
	<path id="Path_1340" class="st33" d="M79.7,40.7l-0.6-0.3l-1.2-0.6l-0.6-0.6c0,0,0,0,0-0.3c0.6-2.7,1.2-5.4,0.6-8.1
		c0-0.6,0.9-0.9,1.2-1.2c0.3,0,0.6-0.3,0.9-0.3c0.6,0,0.6,0.3,0.6,0.9C80,32.2,79.7,34.6,80,37c0,0.9-0.3,1.8,0.3,2.7
		C80.3,40.1,80,40.4,79.7,40.7z"/>
	<path id="Path_1341" class="st16" d="M75.8,39.5c-0.3,0-1.2,0.3-0.6-0.6c0.3-0.3-0.9-0.3-0.3-0.9l1.5,0.6v0.3
		C76.4,39.2,75.8,39.2,75.8,39.5z"/>
	<path id="Path_1342" class="st33" d="M76.4,38.9C76.4,38.9,76.4,38.6,76.4,38.9l0.6-0.3c0.3,0,0.3,0.3,0.3,0.6l0,0L76.4,38.9z"/>
	<path id="Path_1343" class="st34" d="M71.6,23.2L71.6,23.2c-0.9,0-0.6-0.3-0.6-0.6c0.3-0.3,0.3-0.9,0.6-0.9c0,0,0,0.3,0.3,0.6
		c0-0.9,0.3-0.9,0.9-0.9c3.9,0.6,7.8,0.3,11.7,0.3c0.6,0,1.2,0.3,1.8-0.3c0,0,0.6-0.3,0.6,0.3c-0.3,0.6-1.2,0.6-1.8,0.6
		c-4.2,0.3-8.1,0.6-12.3,0.6C72.5,22.9,71.9,22.9,71.6,23.2z"/>
	<path id="Path_1344" class="st11" d="M71,22.6c0,0.3,0,0.6,0.3,0.6c0,0.3,0,0.9,0,1.2H71c-0.3,0-0.3-0.3-0.6-0.6c0-0.6,0-1.2,0-1.8
		C71,22,70.7,22.6,71,22.6z"/>
	<path id="Path_1345" class="st35" d="M83.6,42.8L83.6,42.8C83.3,42.8,83.3,42.8,83.6,42.8c-0.3-0.6-0.3-1.2-0.6-1.8
		c-0.3-0.3-0.6-0.6,0-0.9c0.3-0.3,0-0.6,0-0.9c0.6-3.9,0.3-8.1,0.6-12c0-0.3,0.3-0.9,0.9-0.9c0.3-0.3,0.9-0.3,1.2,0
		c0.3,0.3,0.3,0.6,0.3,0.9c-0.6,3.3-0.6,6.3-0.6,9.6c0,1.8-0.3,3.3-0.3,5.1C85.1,42.8,84.8,43.1,83.6,42.8z"/>
	<path id="Path_1346" class="st36" d="M83.9,27.4c0.6,0.6,0,1.5,0,2.1c0,3,0.3,6-0.3,9.3c-0.3,0.6,0,1.5,0.3,1.8
		c-0.6,0.3-0.6-0.3-0.9-0.3c0.3,0.6,1.5,1.2,0.6,2.1c-0.3,0-0.6-0.3-0.9-0.6c-0.6-0.6-0.3-1.5-0.6-2.4c-0.3-2.1,0.6-4.2,0.3-6.3
		c0-1.5-0.3-2.7,0.3-3.9c0-0.3,0-0.6,0-1.2c0-0.6,0.6-0.9,0.9-0.9C83.6,27.1,83.6,27.1,83.9,27.4z"/>
	<path id="Path_1347" class="st37" d="M82.4,28c0.9,0.6,0.6,1.2,0.3,1.8c-0.3,0.6-0.3,1.5-0.3,2.1c0.3,1.5,0.6,3-0.3,4.5
		c-0.3,0.6-0.3,1.2,0,1.5c0.3,0.6,0.3,1.5,0,2.1c-0.3,0.6,0.6,1.2,0.3,1.8l0,0c-0.3,0-0.3-0.3-0.9-0.3h-0.6L80.3,41
		c-0.3-1.5,0-3.3,0-4.8s0.3-2.7,0.3-4.2c0-0.9,0-1.5-0.3-2.1C80,29.5,80,29.2,80,28.9C81.2,28.3,81.8,28,82.4,28z"/>
	<path id="Path_1348" class="st36" d="M81.8,41.6c0.6-0.3,0.6,0.3,0.9,0.3C82.1,42.2,81.8,41.9,81.8,41.6z"/>
	<path id="Path_1349" class="st38" d="M80.9,28.9C80.9,29.2,80.9,29.2,80.9,28.9c1.2,1.8,0.3,3.6,0.3,5.4c0,2.1-0.3,4.2-0.3,6.3
		c0,0.3,0,0.3,0,0.6h-0.3C80.3,41,80,41,79.7,40.7c0-0.3,0.3-0.6,0.3-0.6c-0.6-2.1-0.3-4.2,0-6.3c0-1.2-0.3-2.4,0.6-3.3
		c0-0.3,0-0.6-0.3-0.6v-0.3C80.3,28.9,80.6,28.9,80.9,28.9z"/>
	<path id="Path_1350" class="st39" d="M83.6,42.8c0.9,0,1.5-0.3,0.9-1.2v-0.3c0.6-3.3,0.3-6.3,0.6-9.6c0-1.2,0-2.1,0-3.3
		c0-0.6,0.6-1.2,0-1.8c0.3-0.6,0.6-0.9,1.5-0.9c0.3,0,0.6,0.3,0.6,0.6c0,1.5,0,3-0.6,4.5c0,0.3-0.3,0.6,0,0.9c0.3,1.5,0,3.3-0.3,4.8
		c-0.3,2.1-0.3,3.9-0.3,6c0,0.6,0,1.2-0.6,1.2l-1.2-0.3L83.6,42.8z"/>
	<path id="Path_1351" class="st9" d="M90.5,36.1v3.6l0,0V36.1L90.5,36.1z"/>
	<path id="Path_1352" class="st40" d="M85.4,43.7c0.6-0.6,0.6-1.2,0.3-2.1c0-2.7,0.3-5.4,0.6-7.8c0-0.3,0-0.6,0-1.2
		c-0.6-2.4,0.6-4.5,0.9-6.9c0-0.6,0.3-0.6,0.6-0.9c0,0,0,0,0.3,0c0,0,0.3,0,0.3,0.3c-0.6,0.9-0.3,2.1-0.6,3
		c-0.3,2.4,0.3,4.5-0.3,6.9c-0.6,3-0.6,6.3-0.6,9.6h-0.3L85.4,43.7z"/>
	<path id="Path_1353" class="st41" d="M80.9,28.9L80,29.2c-0.3-0.3,0-0.3,0-0.6c-3,0-5.7-0.3-8.7,0.3H71c-0.3-0.3-0.6-0.3-0.6-0.6
		c0-0.3,0-0.6,0-0.9l0,0c0.6-0.3,1.5-0.3,2.1-0.3c3.3,0,6.6,0,10.2,0c0.3,0,0.6,0,0.6,0.3L82.4,28C82.1,28.3,81.5,28.6,80.9,28.9z"
		/>
	<path id="Path_1354" class="st42" d="M79.4,29.8l-1.2,0.9c-0.3,0.3-0.6,0.6-0.9,0.3c-1.8-0.3-3.3-0.3-5.1,0c-0.3,0-0.9-0.3-1.5-0.6
		c0-0.3,0-0.6,0-0.6c0.3-0.3,0-0.9,0.6-0.9c0.6,0.3,1.5,0,2.1,0c1.5,0,2.7,0,4.2,0C78.2,29.2,79.1,28.9,79.4,29.8z"/>
	<path id="Path_1355" class="st43" d="M70.7,30.7c0.3,0.3,1.2-0.6,1.2,0.3c0,0.3,0-0.3,0.3-0.3c1.8,0.6,3.6-0.6,5.1,0.6
		c0,0,0,0,0,0.3l0,0L74,33.4c-0.6-0.6-1.5-0.6-2.4-0.6c-0.3,0-0.6,0-0.9-0.3C70.7,31.6,70.7,31,70.7,30.7z"/>
	<path id="Path_1356" class="st44" d="M70.7,32.2c0.3,0.3,0.6,0.3,0.9,0c0.9-0.3,1.8-0.3,2.1,0.9l-3,1.8
		C70.7,34,70.7,33.1,70.7,32.2z"/>
	<path id="Path_1357" class="st45" d="M71.3,28.9c-0.3,0.3-0.3,0.9-0.6,0.9c0-0.6,0-0.9,0-1.5C71,28.3,71.3,28.3,71.3,28.9z"/>
	<path id="Path_1358" class="st46" d="M77,31.3C77,31.3,77.3,31,77,31.3l0.9-0.6c0.6,0.3,0.3,1.2,0.9,0.9c-0.3,0.3-0.6,0.3-0.6,0.9
		c0.3,1.8-0.3,3.6-0.6,5.4c0,0.3-0.3,0.9-0.6,0.9l-0.3-0.6c0-2.1-0.3-4.2,0.6-6.3C77.6,31.9,77.6,31.3,77,31.3z"/>
	<path id="Path_1359" class="st28" d="M64.9,16.3c0-0.3,0-0.6,0.3-0.6h0.3C65.5,16,65.2,16,64.9,16.3z"/>
	<path id="Path_1360" class="st47" d="M86.9,25.6c-0.3,0-0.9,0.3-1.2,0.6l-0.9,0.3c-3.9,0.3-7.8,0-11.7,0c-0.9,0-1.5-0.6-2.4-0.3
		v-1.8c0,0,0.3-0.3,0.3,0c0.3,0.6,0.3-0.3,0.3-0.3c0.3,0.6,0.6,0.9,1.5,0.9c0.3,0,0.6,0,1.2,0c3.3,0,6.6-0.3,9.9-0.3
		c0.9,0,2.1-0.3,3,0c0.3,0,0.9-0.6,1.5-0.3c0,0,0,0,0,0.3l0,0C87.8,25.3,87.2,25.6,86.9,25.6z"/>
	<path id="Path_1361" class="st48" d="M70.7,26.5c0.9-0.6,1.8,0,2.7,0c3.6,0,7.2,0,11.1,0c0.3,0,0.3,0,0.6,0.3l-0.9,0.6h-0.3
		c-0.9-0.3-1.8,0-2.7,0c-3,0-5.7,0-8.7,0c-0.6,0-0.9,0.3-1.5,0C70.7,27.1,70.7,26.8,70.7,26.5z"/>
	<path id="Path_1362" class="st32" d="M71.3,24.4v0.9c-0.3,0-0.3-0.6-0.6-0.6c0-0.3,0-0.6,0-0.6C71,24.1,71,24.4,71.3,24.4z"/>
	<path id="Path_1363" class="st45" d="M79.4,29.8c-0.6-0.3-1.2-0.6-1.8-0.6c-2.1,0-4.2-0.3-6,0c-0.6,0,0-0.3-0.3-0.6
		c0.6-0.3,1.2-0.6,1.8-0.6c2.7,0,5.1,0,7.8,0l-0.6,0.9c0,0,0,0,0,0.3L79.4,29.8z"/>
	<path id="Path_1364" class="st31" d="M86.9,25.6c0.3-0.3,0.9-0.6,1.2-0.6l-0.6,0.9L86.9,25.6z"/>
</g>
</svg>
